<svg width="100%" viewBox="0 0 680 340" xmlns="http://www.w3.org/2000/svg">
<defs>
  <marker id="arrow" viewBox="0 0 10 10" refX="8" refY="5" markerWidth="6" markerHeight="6" orient="auto-start-reverse">
    <path d="M2 1L8 5L2 9" fill="none" stroke="context-stroke" stroke-width="1.5" stroke-linecap="round" stroke-linejoin="round"/>
  </marker>
</defs>

<rect x="0" y="0" width="680" height="340" fill="#0a1628" rx="12"/>

<rect x="0" y="0" width="680" height="4" fill="#008751" rx="0"/>

<line x1="40" y1="40" x2="640" y2="40" stroke="#1a2d4a" stroke-width="0.5"/>
<line x1="40" y1="100" x2="640" y2="100" stroke="#1a2d4a" stroke-width="0.5"/>
<line x1="40" y1="160" x2="640" y2="160" stroke="#1a2d4a" stroke-width="0.5"/>
<line x1="40" y1="220" x2="640" y2="220" stroke="#1a2d4a" stroke-width="0.5"/>
<line x1="40" y1="280" x2="640" y2="280" stroke="#1a2d4a" stroke-width="0.5"/>

<rect x="80" y="200" width="60" height="80" fill="#008751" opacity="0.7" rx="3"/>
<rect x="180" y="170" width="60" height="110" fill="#008751" opacity="0.8" rx="3"/>
<rect x="280" y="140" width="60" height="140" fill="#008751" opacity="0.85" rx="3"/>
<rect x="380" y="80" width="60" height="200" fill="#f0b429" opacity="0.9" rx="3"/>
<rect x="480" y="60" width="60" height="220" fill="#f0b429" opacity="0.95" rx="3"/>

<text x="110" y="300" text-anchor="middle" fill="#7a8ba0" font-size="12" font-family="sans-serif">2020</text>
<text x="210" y="300" text-anchor="middle" fill="#7a8ba0" font-size="12" font-family="sans-serif">2021</text>
<text x="310" y="300" text-anchor="middle" fill="#7a8ba0" font-size="12" font-family="sans-serif">2022</text>
<text x="410" y="300" text-anchor="middle" fill="#f0b429" font-size="12" font-family="sans-serif">2023</text>
<text x="510" y="300" text-anchor="middle" fill="#f0b429" font-size="12" font-family="sans-serif">2024</text>

<line x1="110" y1="195" x2="110" y2="170" stroke="#e05252" stroke-width="1" stroke-dasharray="3,2"/>
<text x="110" y="165" text-anchor="middle" fill="#e05252" font-size="10" font-family="sans-serif">COVID</text>

<line x1="410" y1="75" x2="440" y2="55" stroke="#f0b429" stroke-width="1" stroke-dasharray="3,2"/>
<text x="470" y="52" text-anchor="middle" fill="#f0b429" font-size="10" font-family="sans-serif">Naira devaluation</text>

<path d="M580 80 L600 75 L620 90 L625 110 L615 130 L620 150 L610 175 L595 185 L580 180 L565 165 L560 145 L570 120 L565 100 Z" fill="none" stroke="#008751" stroke-width="1.5" opacity="0.6"/>
<path d="M580 80 L600 75 L620 90 L625 110 L615 130 L620 150 L610 175 L595 185 L580 180 L565 165 L560 145 L570 120 L565 100 Z" fill="#008751" opacity="0.1"/>

<circle cx="585" cy="155" r="4" fill="#f0b429" opacity="0.8"/>
<circle cx="595" cy="130" r="3" fill="#1e90ff" opacity="0.7"/>
<circle cx="578" cy="120" r="3" fill="#1e90ff" opacity="0.7"/>
<circle cx="600" cy="110" r="3" fill="#1e90ff" opacity="0.7"/>
<circle cx="610" cy="145" r="3" fill="#1e90ff" opacity="0.6"/>
<circle cx="570" cy="140" r="3" fill="#1e90ff" opacity="0.6"/>

<text x="40" y="328" fill="#e8edf5" font-size="13" font-family="sans-serif" font-weight="500">FAAC Federal Revenue Analysis · 2020–2024</text>
<text x="640" y="328" text-anchor="end" fill="#7a8ba0" font-size="11" font-family="sans-serif">In Progress</text>

<rect x="40" y="55" width="10" height="10" fill="#008751" rx="2"/>
<text x="56" y="65" fill="#7a8ba0" font-size="11" font-family="sans-serif">Statutory</text>
<rect x="120" y="55" width="10" height="10" fill="#f0b429" rx="2"/>
<text x="136" y="65" fill="#7a8ba0" font-size="11" font-family="sans-serif">Post-devaluation</text>

</svg>
